<svg version="1.1" xmlns="http://www.w3.org/2000/svg" xmlns:xlink="http://www.w3.org/1999/xlink" width="603" height="584"><defs/><g><text fill="#eeeeee" stroke="none" font-family="Arial" font-size="24px" font-style="normal" font-weight="normal" text-decoration="none" x="0" y="0">UNREGISTERED</text><text fill="#eeeeee" stroke="none" font-family="Arial" font-size="24px" font-style="normal" font-weight="normal" text-decoration="none" x="0" y="30">UNREGISTERED</text><text fill="#eeeeee" stroke="none" font-family="Arial" font-size="24px" font-style="normal" font-weight="normal" text-decoration="none" x="0" y="60">UNREGISTERED</text><text fill="#eeeeee" stroke="none" font-family="Arial" font-size="24px" font-style="normal" font-weight="normal" text-decoration="none" x="0" y="90">UNREGISTERED</text><text fill="#eeeeee" stroke="none" font-family="Arial" font-size="24px" font-style="normal" font-weight="normal" text-decoration="none" x="0" y="120">UNREGISTERED</text><text fill="#eeeeee" stroke="none" font-family="Arial" font-size="24px" font-style="normal" font-weight="normal" text-decoration="none" x="0" y="150">UNREGISTERED</text><text fill="#eeeeee" stroke="none" font-family="Arial" font-size="24px" font-style="normal" font-weight="normal" text-decoration="none" x="0" y="180">UNREGISTERED</text><text fill="#eeeeee" stroke="none" font-family="Arial" font-size="24px" font-style="normal" font-weight="normal" text-decoration="none" x="0" y="210">UNREGISTERED</text><text fill="#eeeeee" stroke="none" font-family="Arial" font-size="24px" font-style="normal" font-weight="normal" text-decoration="none" x="0" y="240">UNREGISTERED</text><text fill="#eeeeee" stroke="none" font-family="Arial" font-size="24px" font-style="normal" font-weight="normal" text-decoration="none" x="0" y="270">UNREGISTERED</text><text fill="#eeeeee" stroke="none" font-family="Arial" font-size="24px" font-style="normal" font-weight="normal" text-decoration="none" x="0" y="300">UNREGISTERED</text><text fill="#eeeeee" stroke="none" font-family="Arial" font-size="24px" font-style="normal" font-weight="normal" text-decoration="none" x="0" y="330">UNREGISTERED</text><text fill="#eeeeee" stroke="none" font-family="Arial" font-size="24px" font-style="normal" font-weight="normal" text-decoration="none" x="0" y="360">UNREGISTERED</text><text fill="#eeeeee" stroke="none" font-family="Arial" font-size="24px" font-style="normal" font-weight="normal" text-decoration="none" x="0" y="390">UNREGISTERED</text><text fill="#eeeeee" stroke="none" font-family="Arial" font-size="24px" font-style="normal" font-weight="normal" text-decoration="none" x="0" y="420">UNREGISTERED</text><text fill="#eeeeee" stroke="none" font-family="Arial" font-size="24px" font-style="normal" font-weight="normal" text-decoration="none" x="0" y="450">UNREGISTERED</text><text fill="#eeeeee" stroke="none" font-family="Arial" font-size="24px" font-style="normal" font-weight="normal" text-decoration="none" x="0" y="480">UNREGISTERED</text><text fill="#eeeeee" stroke="none" font-family="Arial" font-size="24px" font-style="normal" font-weight="normal" text-decoration="none" x="0" y="510">UNREGISTERED</text><text fill="#eeeeee" stroke="none" font-family="Arial" font-size="24px" font-style="normal" font-weight="normal" text-decoration="none" x="0" y="540">UNREGISTERED</text><text fill="#eeeeee" stroke="none" font-family="Arial" font-size="24px" font-style="normal" font-weight="normal" text-decoration="none" x="0" y="570">UNREGISTERED</text><text fill="#eeeeee" stroke="none" font-family="Arial" font-size="24px" font-style="normal" font-weight="normal" text-decoration="none" x="200" y="0">UNREGISTERED</text><text fill="#eeeeee" stroke="none" font-family="Arial" font-size="24px" font-style="normal" font-weight="normal" text-decoration="none" x="200" y="30">UNREGISTERED</text><text fill="#eeeeee" stroke="none" font-family="Arial" font-size="24px" font-style="normal" font-weight="normal" text-decoration="none" x="200" y="60">UNREGISTERED</text><text fill="#eeeeee" stroke="none" font-family="Arial" font-size="24px" font-style="normal" font-weight="normal" text-decoration="none" x="200" y="90">UNREGISTERED</text><text fill="#eeeeee" stroke="none" font-family="Arial" font-size="24px" font-style="normal" font-weight="normal" text-decoration="none" x="200" y="120">UNREGISTERED</text><text fill="#eeeeee" stroke="none" font-family="Arial" font-size="24px" font-style="normal" font-weight="normal" text-decoration="none" x="200" y="150">UNREGISTERED</text><text fill="#eeeeee" stroke="none" font-family="Arial" font-size="24px" font-style="normal" font-weight="normal" text-decoration="none" x="200" y="180">UNREGISTERED</text><text fill="#eeeeee" stroke="none" font-family="Arial" font-size="24px" font-style="normal" font-weight="normal" text-decoration="none" x="200" y="210">UNREGISTERED</text><text fill="#eeeeee" stroke="none" font-family="Arial" font-size="24px" font-style="normal" font-weight="normal" text-decoration="none" x="200" y="240">UNREGISTERED</text><text fill="#eeeeee" stroke="none" font-family="Arial" font-size="24px" font-style="normal" font-weight="normal" text-decoration="none" x="200" y="270">UNREGISTERED</text><text fill="#eeeeee" stroke="none" font-family="Arial" font-size="24px" font-style="normal" font-weight="normal" text-decoration="none" x="200" y="300">UNREGISTERED</text><text fill="#eeeeee" stroke="none" font-family="Arial" font-size="24px" font-style="normal" font-weight="normal" text-decoration="none" x="200" y="330">UNREGISTERED</text><text fill="#eeeeee" stroke="none" font-family="Arial" font-size="24px" font-style="normal" font-weight="normal" text-decoration="none" x="200" y="360">UNREGISTERED</text><text fill="#eeeeee" stroke="none" font-family="Arial" font-size="24px" font-style="normal" font-weight="normal" text-decoration="none" x="200" y="390">UNREGISTERED</text><text fill="#eeeeee" stroke="none" font-family="Arial" font-size="24px" font-style="normal" font-weight="normal" text-decoration="none" x="200" y="420">UNREGISTERED</text><text fill="#eeeeee" stroke="none" font-family="Arial" font-size="24px" font-style="normal" font-weight="normal" text-decoration="none" x="200" y="450">UNREGISTERED</text><text fill="#eeeeee" stroke="none" font-family="Arial" font-size="24px" font-style="normal" font-weight="normal" text-decoration="none" x="200" y="480">UNREGISTERED</text><text fill="#eeeeee" stroke="none" font-family="Arial" font-size="24px" font-style="normal" font-weight="normal" text-decoration="none" x="200" y="510">UNREGISTERED</text><text fill="#eeeeee" stroke="none" font-family="Arial" font-size="24px" font-style="normal" font-weight="normal" text-decoration="none" x="200" y="540">UNREGISTERED</text><text fill="#eeeeee" stroke="none" font-family="Arial" font-size="24px" font-style="normal" font-weight="normal" text-decoration="none" x="200" y="570">UNREGISTERED</text><text fill="#eeeeee" stroke="none" font-family="Arial" font-size="24px" font-style="normal" font-weight="normal" text-decoration="none" x="400" y="0">UNREGISTERED</text><text fill="#eeeeee" stroke="none" font-family="Arial" font-size="24px" font-style="normal" font-weight="normal" text-decoration="none" x="400" y="30">UNREGISTERED</text><text fill="#eeeeee" stroke="none" font-family="Arial" font-size="24px" font-style="normal" font-weight="normal" text-decoration="none" x="400" y="60">UNREGISTERED</text><text fill="#eeeeee" stroke="none" font-family="Arial" font-size="24px" font-style="normal" font-weight="normal" text-decoration="none" x="400" y="90">UNREGISTERED</text><text fill="#eeeeee" stroke="none" font-family="Arial" font-size="24px" font-style="normal" font-weight="normal" text-decoration="none" x="400" y="120">UNREGISTERED</text><text fill="#eeeeee" stroke="none" font-family="Arial" font-size="24px" font-style="normal" font-weight="normal" text-decoration="none" x="400" y="150">UNREGISTERED</text><text fill="#eeeeee" stroke="none" font-family="Arial" font-size="24px" font-style="normal" font-weight="normal" text-decoration="none" x="400" y="180">UNREGISTERED</text><text fill="#eeeeee" stroke="none" font-family="Arial" font-size="24px" font-style="normal" font-weight="normal" text-decoration="none" x="400" y="210">UNREGISTERED</text><text fill="#eeeeee" stroke="none" font-family="Arial" font-size="24px" font-style="normal" font-weight="normal" text-decoration="none" x="400" y="240">UNREGISTERED</text><text fill="#eeeeee" stroke="none" font-family="Arial" font-size="24px" font-style="normal" font-weight="normal" text-decoration="none" x="400" y="270">UNREGISTERED</text><text fill="#eeeeee" stroke="none" font-family="Arial" font-size="24px" font-style="normal" font-weight="normal" text-decoration="none" x="400" y="300">UNREGISTERED</text><text fill="#eeeeee" stroke="none" font-family="Arial" font-size="24px" font-style="normal" font-weight="normal" text-decoration="none" x="400" y="330">UNREGISTERED</text><text fill="#eeeeee" stroke="none" font-family="Arial" font-size="24px" font-style="normal" font-weight="normal" text-decoration="none" x="400" y="360">UNREGISTERED</text><text fill="#eeeeee" stroke="none" font-family="Arial" font-size="24px" font-style="normal" font-weight="normal" text-decoration="none" x="400" y="390">UNREGISTERED</text><text fill="#eeeeee" stroke="none" font-family="Arial" font-size="24px" font-style="normal" font-weight="normal" text-decoration="none" x="400" y="420">UNREGISTERED</text><text fill="#eeeeee" stroke="none" font-family="Arial" font-size="24px" font-style="normal" font-weight="normal" text-decoration="none" x="400" y="450">UNREGISTERED</text><text fill="#eeeeee" stroke="none" font-family="Arial" font-size="24px" font-style="normal" font-weight="normal" text-decoration="none" x="400" y="480">UNREGISTERED</text><text fill="#eeeeee" stroke="none" font-family="Arial" font-size="24px" font-style="normal" font-weight="normal" text-decoration="none" x="400" y="510">UNREGISTERED</text><text fill="#eeeeee" stroke="none" font-family="Arial" font-size="24px" font-style="normal" font-weight="normal" text-decoration="none" x="400" y="540">UNREGISTERED</text><text fill="#eeeeee" stroke="none" font-family="Arial" font-size="24px" font-style="normal" font-weight="normal" text-decoration="none" x="400" y="570">UNREGISTERED</text><text fill="#eeeeee" stroke="none" font-family="Arial" font-size="24px" font-style="normal" font-weight="normal" text-decoration="none" x="600" y="0">UNREGISTERED</text><text fill="#eeeeee" stroke="none" font-family="Arial" font-size="24px" font-style="normal" font-weight="normal" text-decoration="none" x="600" y="30">UNREGISTERED</text><text fill="#eeeeee" stroke="none" font-family="Arial" font-size="24px" font-style="normal" font-weight="normal" text-decoration="none" x="600" y="60">UNREGISTERED</text><text fill="#eeeeee" stroke="none" font-family="Arial" font-size="24px" font-style="normal" font-weight="normal" text-decoration="none" x="600" y="90">UNREGISTERED</text><text fill="#eeeeee" stroke="none" font-family="Arial" font-size="24px" font-style="normal" font-weight="normal" text-decoration="none" x="600" y="120">UNREGISTERED</text><text fill="#eeeeee" stroke="none" font-family="Arial" font-size="24px" font-style="normal" font-weight="normal" text-decoration="none" x="600" y="150">UNREGISTERED</text><text fill="#eeeeee" stroke="none" font-family="Arial" font-size="24px" font-style="normal" font-weight="normal" text-decoration="none" x="600" y="180">UNREGISTERED</text><text fill="#eeeeee" stroke="none" font-family="Arial" font-size="24px" font-style="normal" font-weight="normal" text-decoration="none" x="600" y="210">UNREGISTERED</text><text fill="#eeeeee" stroke="none" font-family="Arial" font-size="24px" font-style="normal" font-weight="normal" text-decoration="none" x="600" y="240">UNREGISTERED</text><text fill="#eeeeee" stroke="none" font-family="Arial" font-size="24px" font-style="normal" font-weight="normal" text-decoration="none" x="600" y="270">UNREGISTERED</text><text fill="#eeeeee" stroke="none" font-family="Arial" font-size="24px" font-style="normal" font-weight="normal" text-decoration="none" x="600" y="300">UNREGISTERED</text><text fill="#eeeeee" stroke="none" font-family="Arial" font-size="24px" font-style="normal" font-weight="normal" text-decoration="none" x="600" y="330">UNREGISTERED</text><text fill="#eeeeee" stroke="none" font-family="Arial" font-size="24px" font-style="normal" font-weight="normal" text-decoration="none" x="600" y="360">UNREGISTERED</text><text fill="#eeeeee" stroke="none" font-family="Arial" font-size="24px" font-style="normal" font-weight="normal" text-decoration="none" x="600" y="390">UNREGISTERED</text><text fill="#eeeeee" stroke="none" font-family="Arial" font-size="24px" font-style="normal" font-weight="normal" text-decoration="none" x="600" y="420">UNREGISTERED</text><text fill="#eeeeee" stroke="none" font-family="Arial" font-size="24px" font-style="normal" font-weight="normal" text-decoration="none" x="600" y="450">UNREGISTERED</text><text fill="#eeeeee" stroke="none" font-family="Arial" font-size="24px" font-style="normal" font-weight="normal" text-decoration="none" x="600" y="480">UNREGISTERED</text><text fill="#eeeeee" stroke="none" font-family="Arial" font-size="24px" font-style="normal" font-weight="normal" text-decoration="none" x="600" y="510">UNREGISTERED</text><text fill="#eeeeee" stroke="none" font-family="Arial" font-size="24px" font-style="normal" font-weight="normal" text-decoration="none" x="600" y="540">UNREGISTERED</text><text fill="#eeeeee" stroke="none" font-family="Arial" font-size="24px" font-style="normal" font-weight="normal" text-decoration="none" x="600" y="570">UNREGISTERED</text><g transform="translate(-190,-26) scale(1,1)"><rect fill="#C0C0C0" stroke="none" x="327" y="63" width="432" height="544" opacity="0.2"/></g><g transform="translate(-190,-26) scale(1,1)"><rect fill="#ffffff" stroke="none" x="320" y="56" width="432" height="544"/></g><g transform="translate(-190,-26) scale(1,1)"><path fill="none" stroke="#000000" d="M 320 56 L 752 56 L 752 600 L 320 600 L 320 56 Z Z" stroke-miterlimit="10"/></g><g transform="translate(-190,-26) scale(1,1)"><g><path fill="none" stroke="none"/><text fill="#a00000" stroke="none" font-family="Arial" font-size="18px" font-style="normal" font-weight="bold" text-decoration="none" x="465.45458984375" y="80.5">Quora application</text></g></g><g transform="translate(-190,-26) scale(1,1)"><path fill="#ffffff" stroke="none" d="M 216.40935031960228 305.68 C 216.40935031960228 300.886167936 220.29519264454774 297 225.088623046875 297 C 229.88205344920226 297 233.76789577414772 300.886167936 233.76789577414772 305.68 C 233.76789577414772 310.473832064 229.88205344920226 314.36 225.088623046875 314.36 C 220.29519264454774 314.36 216.40935031960228 310.473832064 216.40935031960228 305.68 Z"/></g><g transform="translate(-190,-26) scale(1,1)"><path fill="none" stroke="#000000" d="M 216.40935031960228 305.68 C 216.40935031960228 300.886167936 220.29519264454774 297 225.088623046875 297 C 229.88205344920226 297 233.76789577414772 300.886167936 233.76789577414772 305.68 C 233.76789577414772 310.473832064 229.88205344920226 314.36 225.088623046875 314.36 C 220.29519264454774 314.36 216.40935031960228 310.473832064 216.40935031960228 305.68 Z" stroke-miterlimit="10"/></g><g transform="translate(-190,-26) scale(1,1)"><path fill="none" stroke="#000000" d="M 225.088623046875 314.36 L 225.088623046875 331.64" stroke-miterlimit="10"/></g><g transform="translate(-190,-26) scale(1,1)"><path fill="none" stroke="#000000" d="M 215.89880486505683 320.84 L 234.27844122869317 320.84" stroke-miterlimit="10"/></g><g transform="translate(-190,-26) scale(1,1)"><path fill="none" stroke="#000000" d="M 225.088623046875 331.64 L 212.32498668323865 349" stroke-miterlimit="10"/></g><g transform="translate(-190,-26) scale(1,1)"><path fill="none" stroke="#000000" d="M 225.088623046875 331.64 L 237.85225941051135 349" stroke-miterlimit="10"/></g><g transform="translate(-190,-26) scale(1,1)"><g><path fill="none" stroke="none"/><text fill="#000000" stroke="none" font-family="Arial" font-size="13px" font-style="normal" font-weight="bold" text-decoration="none" x="211.364990234375" y="369.5">User</text></g></g><g transform="translate(-190,-26) scale(1,1)"><path fill="#C0C0C0" stroke="none" d="M 367 208 C 367 198.6111584 389.6096176 191 417.5 191 C 445.3903824 191 468 198.6111584 468 208 C 468 217.3888416 445.3903824 225 417.5 225 C 389.6096176 225 367 217.3888416 367 208 Z" opacity="0.2"/></g><g transform="translate(-190,-26) scale(1,1)"><path fill="#ffffff" stroke="none" d="M 360 201 C 360 191.6111584 382.6096176 184 410.5 184 C 438.3903824 184 461 191.6111584 461 201 C 461 210.3888416 438.3903824 218 410.5 218 C 382.6096176 218 360 210.3888416 360 201 Z"/></g><g transform="translate(-190,-26) scale(1,1)"><path fill="none" stroke="#000000" d="M 360 201 C 360 191.6111584 382.6096176 184 410.5 184 C 438.3903824 184 461 191.6111584 461 201 C 461 210.3888416 438.3903824 218 410.5 218 C 382.6096176 218 360 210.3888416 360 201 Z" stroke-miterlimit="10"/></g><g transform="translate(-190,-26) scale(1,1)"><g><path fill="none" stroke="none"/><text fill="#000000" stroke="none" font-family="Arial" font-size="13px" font-style="normal" font-weight="bold" text-decoration="none" x="394.595947265625" y="208">Login</text></g></g><g transform="translate(-190,-26) scale(1,1)"><path fill="#C0C0C0" stroke="none" d="M 359 272 C 359 262.6111584 384.0720512 255 415 255 C 445.9279488 255 471 262.6111584 471 272 C 471 281.3888416 445.9279488 289 415 289 C 384.0720512 289 359 281.3888416 359 272 Z" opacity="0.2"/></g><g transform="translate(-190,-26) scale(1,1)"><path fill="#ffffff" stroke="none" d="M 352 265 C 352 255.6111584 377.0720512 248 408 248 C 438.9279488 248 464 255.6111584 464 265 C 464 274.3888416 438.9279488 282 408 282 C 377.0720512 282 352 274.3888416 352 265 Z"/></g><g transform="translate(-190,-26) scale(1,1)"><path fill="none" stroke="#000000" d="M 352 265 C 352 255.6111584 377.0720512 248 408 248 C 438.9279488 248 464 255.6111584 464 265 C 464 274.3888416 438.9279488 282 408 282 C 377.0720512 282 352 274.3888416 352 265 Z" stroke-miterlimit="10"/></g><g transform="translate(-190,-26) scale(1,1)"><g><path fill="none" stroke="none"/><text fill="#000000" stroke="none" font-family="Arial" font-size="13px" font-style="normal" font-weight="bold" text-decoration="none" x="379.93701171875" y="272">View post</text></g></g><g transform="translate(-190,-26) scale(1,1)"><path fill="#C0C0C0" stroke="none" d="M 359 336 C 359 326.6111584 386.5344848 319 420.5 319 C 454.4655152 319 482 326.6111584 482 336 C 482 345.3888416 454.4655152 353 420.5 353 C 386.5344848 353 359 345.3888416 359 336 Z" opacity="0.2"/></g><g transform="translate(-190,-26) scale(1,1)"><path fill="#ffffff" stroke="none" d="M 352 329 C 352 319.6111584 379.5344848 312 413.5 312 C 447.4655152 312 475 319.6111584 475 329 C 475 338.3888416 447.4655152 346 413.5 346 C 379.5344848 346 352 338.3888416 352 329 Z"/></g><g transform="translate(-190,-26) scale(1,1)"><path fill="none" stroke="#000000" d="M 352 329 C 352 319.6111584 379.5344848 312 413.5 312 C 447.4655152 312 475 319.6111584 475 329 C 475 338.3888416 447.4655152 346 413.5 346 C 379.5344848 346 352 338.3888416 352 329 Z" stroke-miterlimit="10"/></g><g transform="translate(-190,-26) scale(1,1)"><g><path fill="none" stroke="none"/><text fill="#000000" stroke="none" font-family="Arial" font-size="13px" font-style="normal" font-weight="bold" text-decoration="none" x="377.734130859375" y="336">Answer post</text></g></g><g transform="translate(-190,-26) scale(1,1)"><path fill="#C0C0C0" stroke="none" d="M 351 400 C 351 390.6111584 380.3253456 383 416.5 383 C 452.6746544 383 482 390.6111584 482 400 C 482 409.3888416 452.6746544 417 416.5 417 C 380.3253456 417 351 409.3888416 351 400 Z" opacity="0.2"/></g><g transform="translate(-190,-26) scale(1,1)"><path fill="#ffffff" stroke="none" d="M 344 393 C 344 383.6111584 373.3253456 376 409.5 376 C 445.6746544 376 475 383.6111584 475 393 C 475 402.3888416 445.6746544 410 409.5 410 C 373.3253456 410 344 402.3888416 344 393 Z"/></g><g transform="translate(-190,-26) scale(1,1)"><path fill="none" stroke="#000000" d="M 344 393 C 344 383.6111584 373.3253456 376 409.5 376 C 445.6746544 376 475 383.6111584 475 393 C 475 402.3888416 445.6746544 410 409.5 410 C 373.3253456 410 344 402.3888416 344 393 Z" stroke-miterlimit="10"/></g><g transform="translate(-190,-26) scale(1,1)"><g><path fill="none" stroke="none"/><text fill="#000000" stroke="none" font-family="Arial" font-size="13px" font-style="normal" font-weight="bold" text-decoration="none" x="370.8427734375" y="400">Ask Question</text></g></g><g transform="translate(-190,-26) scale(1,1)"><path fill="none" stroke="#000000" d="M 251 316 L 385 219" stroke-miterlimit="10"/></g><g transform="translate(-190,-26) scale(1,1)"><path fill="none" stroke="#000000" d="M 251 325 L 361 283" stroke-miterlimit="10"/></g><g transform="translate(-190,-26) scale(1,1)"><path fill="none" stroke="#000000" d="M 251 334 L 351 331" stroke-miterlimit="10"/></g><g transform="translate(-190,-26) scale(1,1)"><path fill="none" stroke="#000000" d="M 251 343 L 352 375" stroke-miterlimit="10"/></g><g transform="translate(-190,-26) scale(1,1)"><path fill="#C0C0C0" stroke="none" d="M 359 472 C 359 462.6111584 383.4004784 455 413.5 455 C 443.5995216 455 468 462.6111584 468 472 C 468 481.3888416 443.5995216 489 413.5 489 C 383.4004784 489 359 481.3888416 359 472 Z" opacity="0.2"/></g><g transform="translate(-190,-26) scale(1,1)"><path fill="#ffffff" stroke="none" d="M 352 465 C 352 455.6111584 376.4004784 448 406.5 448 C 436.5995216 448 461 455.6111584 461 465 C 461 474.3888416 436.5995216 482 406.5 482 C 376.4004784 482 352 474.3888416 352 465 Z"/></g><g transform="translate(-190,-26) scale(1,1)"><path fill="none" stroke="#000000" d="M 352 465 C 352 455.6111584 376.4004784 448 406.5 448 C 436.5995216 448 461 455.6111584 461 465 C 461 474.3888416 436.5995216 482 406.5 482 C 376.4004784 482 352 474.3888416 352 465 Z" stroke-miterlimit="10"/></g><g transform="translate(-190,-26) scale(1,1)"><g><path fill="none" stroke="none"/><text fill="#000000" stroke="none" font-family="Arial" font-size="13px" font-style="normal" font-weight="bold" text-decoration="none" x="375.7900390625" y="472">Edit profile</text></g></g><g transform="translate(-190,-26) scale(1,1)"><path fill="none" stroke="#000000" d="M 251 354 L 381 447" stroke-miterlimit="10"/></g><g transform="translate(-190,-26) scale(1,1)"><path fill="#C0C0C0" stroke="none" d="M 551 176 C 551 166.6111584 585.4740704 159 628 159 C 670.5259296 159 705 166.6111584 705 176 C 705 185.3888416 670.5259296 193 628 193 C 585.4740704 193 551 185.3888416 551 176 Z" opacity="0.2"/></g><g transform="translate(-190,-26) scale(1,1)"><path fill="#ffffff" stroke="none" d="M 544 169 C 544 159.6111584 578.4740704 152 621 152 C 663.5259296 152 698 159.6111584 698 169 C 698 178.3888416 663.5259296 186 621 186 C 578.4740704 186 544 178.3888416 544 169 Z"/></g><g transform="translate(-190,-26) scale(1,1)"><path fill="none" stroke="#000000" d="M 544 169 C 544 159.6111584 578.4740704 152 621 152 C 663.5259296 152 698 159.6111584 698 169 C 698 178.3888416 663.5259296 186 621 186 C 578.4740704 186 544 178.3888416 544 169 Z" stroke-miterlimit="10"/></g><g transform="translate(-190,-26) scale(1,1)"><g><path fill="none" stroke="none"/><text fill="#000000" stroke="none" font-family="Arial" font-size="13px" font-style="normal" font-weight="bold" text-decoration="none" x="575.119140625" y="176">Verify password</text></g></g><g transform="translate(-190,-26) scale(1,1)"><path fill="#C0C0C0" stroke="none" d="M 543 232 C 543 222.6111584 582.6227952 215 631.5 215 C 680.3772048 215 720 222.6111584 720 232 C 720 241.3888416 680.3772048 249 631.5 249 C 582.6227952 249 543 241.3888416 543 232 Z" opacity="0.2"/></g><g transform="translate(-190,-26) scale(1,1)"><path fill="#ffffff" stroke="none" d="M 536 225 C 536 215.6111584 575.6227952 208 624.5 208 C 673.3772048 208 713 215.6111584 713 225 C 713 234.3888416 673.3772048 242 624.5 242 C 575.6227952 242 536 234.3888416 536 225 Z"/></g><g transform="translate(-190,-26) scale(1,1)"><path fill="none" stroke="#000000" d="M 536 225 C 536 215.6111584 575.6227952 208 624.5 208 C 673.3772048 208 713 215.6111584 713 225 C 713 234.3888416 673.3772048 242 624.5 242 C 575.6227952 242 536 234.3888416 536 225 Z" stroke-miterlimit="10"/></g><g transform="translate(-190,-26) scale(1,1)"><g><path fill="none" stroke="none"/><text fill="#000000" stroke="none" font-family="Arial" font-size="13px" font-style="normal" font-weight="bold" text-decoration="none" x="571.398681640625" y="232">Display Error login</text></g></g><g transform="translate(-190,-26) scale(1,1)"><path fill="none" stroke="#000000" d="M 462 193 L 543 181" stroke-miterlimit="10" stroke-dasharray="3"/></g><g transform="translate(-190,-26) scale(1,1)"><path fill="none" stroke="#000000" d="M 533.563946035038 186.65339593256348 L 543 181 L 532.3301476530851 178.32525685438125" stroke-miterlimit="10"/></g><g transform="translate(-190,-26) scale(1,1)"><g><path fill="none" stroke="none"/><text fill="#000000" stroke="none" font-family="Arial" font-size="13px" font-style="normal" font-weight="normal" text-decoration="none" x="463.5" y="179.5">«include»</text></g></g><g transform="translate(-190,-26) scale(1,1)"><path fill="none" stroke="#000000" d="M 535 215 L 462 207" stroke-miterlimit="10" stroke-dasharray="3"/></g><g transform="translate(-190,-26) scale(1,1)"><path fill="none" stroke="#000000" d="M 472.5607650244543 203.92262415388328 L 462 207 L 471.64362189235817 212.29155523426056" stroke-miterlimit="10"/></g><g transform="translate(-190,-26) scale(1,1)"><g><path fill="none" stroke="none"/><text fill="#000000" stroke="none" font-family="Arial" font-size="13px" font-style="normal" font-weight="normal" text-decoration="none" x="467.5" y="228.5">«extend»</text></g></g><g transform="translate(-190,-26) scale(1,1)"><rect fill="#C0C0C0" stroke="none" x="623" y="495" width="39.15195312499998" height="15" opacity="0.2"/></g><g transform="translate(-190,-26) scale(1,1)"><rect fill="#C0C0C0" stroke="none" x="623" y="509" width="97.8798828125" height="25" opacity="0.2"/></g><g transform="translate(-190,-26) scale(1,1)"><rect fill="#ffffff" stroke="none" x="616" y="503" width="97.8798828125" height="24"/></g><g transform="translate(-190,-26) scale(1,1)"><path fill="none" stroke="#000000" d="M 616 503 L 713.8798828125 503 L 713.8798828125 527 L 616 527 L 616 503 Z Z" stroke-miterlimit="10"/></g><g transform="translate(-190,-26) scale(1,1)"><rect fill="#ffffff" stroke="none" x="616" y="488" width="39.15195312499998" height="15"/></g><g transform="translate(-190,-26) scale(1,1)"><path fill="none" stroke="#000000" d="M 616 488 L 655.151953125 488 L 655.151953125 503 L 616 503 L 616 488 Z Z" stroke-miterlimit="10"/></g><g transform="translate(-190,-26) scale(1,1)"><rect fill="#ffffff" stroke="none" x="616" y="502" width="97.8798828125" height="25"/></g><g transform="translate(-190,-26) scale(1,1)"><path fill="none" stroke="#000000" d="M 616 502 L 713.8798828125 502 L 713.8798828125 527 L 616 527 L 616 502 Z Z" stroke-miterlimit="10"/></g><g transform="translate(-190,-26) scale(1,1)"><g><path fill="none" stroke="none"/><text fill="#000000" stroke="none" font-family="Arial" font-size="13px" font-style="normal" font-weight="bold" text-decoration="none" x="622.66455078125" y="522.5">User database</text></g></g><g transform="translate(-190,-26) scale(1,1)"><path fill="none" stroke="#000000" d="M 462 474 L 615 499" stroke-miterlimit="10" stroke-dasharray="3"/></g><g transform="translate(-190,-26) scale(1,1)"><path fill="none" stroke="#000000" d="M 604.2915075192901 501.51558915377296 L 615 499 L 605.6491622012927 493.2067424999171" stroke-miterlimit="10"/></g><g transform="translate(-190,-26) scale(1,1)"><g><path fill="none" stroke="none"/><text fill="#000000" stroke="none" font-family="Arial" font-size="13px" font-style="normal" font-weight="normal" text-decoration="none" x="522.5" y="477.5">+save</text></g></g><g transform="translate(-190,-26) scale(1,1)"><rect fill="#C0C0C0" stroke="none" x="591" y="351" width="35.38906250000002" height="15" opacity="0.2"/></g><g transform="translate(-190,-26) scale(1,1)"><rect fill="#C0C0C0" stroke="none" x="591" y="365" width="88.47265625" height="25" opacity="0.2"/></g><g transform="translate(-190,-26) scale(1,1)"><rect fill="#ffffff" stroke="none" x="584" y="359" width="88.47265625" height="24"/></g><g transform="translate(-190,-26) scale(1,1)"><path fill="none" stroke="#000000" d="M 584 359 L 672.47265625 359 L 672.47265625 383 L 584 383 L 584 359 Z Z" stroke-miterlimit="10"/></g><g transform="translate(-190,-26) scale(1,1)"><rect fill="#ffffff" stroke="none" x="584" y="344" width="35.38906250000002" height="15"/></g><g transform="translate(-190,-26) scale(1,1)"><path fill="none" stroke="#000000" d="M 584 344 L 619.3890625 344 L 619.3890625 359 L 584 359 L 584 344 Z Z" stroke-miterlimit="10"/></g><g transform="translate(-190,-26) scale(1,1)"><rect fill="#ffffff" stroke="none" x="584" y="358" width="88.47265625" height="25"/></g><g transform="translate(-190,-26) scale(1,1)"><path fill="none" stroke="#000000" d="M 584 358 L 672.47265625 358 L 672.47265625 383 L 584 383 L 584 358 Z Z" stroke-miterlimit="10"/></g><g transform="translate(-190,-26) scale(1,1)"><g><path fill="none" stroke="none"/><text fill="#000000" stroke="none" font-family="Arial" font-size="13px" font-style="normal" font-weight="bold" text-decoration="none" x="590.293212890625" y="378.5">QA database</text></g></g><g transform="translate(-190,-26) scale(1,1)"><path fill="none" stroke="#000000" d="M 476 384 L 583 369" stroke-miterlimit="10" stroke-dasharray="3"/></g><g transform="translate(-190,-26) scale(1,1)"><path fill="none" stroke="#000000" d="M 573.5201420820191 374.5796320537196 L 583 369 L 572.3513325197998 366.2421238432217" stroke-miterlimit="10"/></g><g transform="translate(-190,-26) scale(1,1)"><g><path fill="none" stroke="none"/><text fill="#000000" stroke="none" font-family="Arial" font-size="13px" font-style="normal" font-weight="normal" text-decoration="none" x="503.5" y="371.5">+save</text></g></g><g transform="translate(-190,-26) scale(1,1)"><path fill="none" stroke="#000000" d="M 536 56 L 536 36 L 782 36 L 782 328 L 752 328" stroke-miterlimit="10" stroke-dasharray="3"/></g><g transform="translate(-190,-26) scale(1,1)"><path fill="none" stroke="#000000" d="M 762.1626748576241 323.790482243984 L 752 328 L 762.1626748576241 332.209517756016" stroke-miterlimit="10"/></g><g transform="translate(-190,-26) scale(1,1)"><path fill="none" stroke="#000000" d="M 476 339 L 583 356" stroke-miterlimit="10" stroke-dasharray="3"/></g><g transform="translate(-190,-26) scale(1,1)"><path fill="none" stroke="#000000" d="M 572.3026945525244 358.56274387393836 L 583 356 L 573.6237292059601 350.2479963493723" stroke-miterlimit="10"/></g><g transform="translate(-190,-26) scale(1,1)"><g><path fill="none" stroke="none"/><text fill="#000000" stroke="none" font-family="Arial" font-size="13px" font-style="normal" font-weight="normal" text-decoration="none" x="487.5" y="339.5">+save</text></g></g><g transform="translate(-190,-26) scale(1,1)"><path fill="none" stroke="#000000" d="M 583 343 L 448 283" stroke-miterlimit="10" stroke-dasharray="3"/></g><g transform="translate(-190,-26) scale(1,1)"><path fill="none" stroke="#000000" d="M 458.9964167340228 283.28074723810596 L 448 283 L 455.5771225655166 290.9741591172449" stroke-miterlimit="10"/></g><g transform="translate(-190,-26) scale(1,1)"><g><path fill="none" stroke="none"/><text fill="#000000" stroke="none" font-family="Arial" font-size="13px" font-style="normal" font-weight="normal" text-decoration="none" x="495.5" y="299.5">+read</text></g></g><g transform="translate(-190,-26) scale(1,1)"><path fill="none" stroke="#000000" d="M 536 56 L 536 36 L 782 36 L 782 328 L 752 328" stroke-miterlimit="10" stroke-dasharray="3"/></g><g transform="translate(-190,-26) scale(1,1)"><path fill="none" stroke="#000000" d="M 762.1626748576241 323.790482243984 L 752 328 L 762.1626748576241 332.209517756016" stroke-miterlimit="10"/></g><g transform="translate(-190,-26) scale(1,1)"><path fill="none" stroke="#000000" d="M 536 56 L 536 36 L 782 36 L 782 328 L 752 328" stroke-miterlimit="10" stroke-dasharray="3"/></g><g transform="translate(-190,-26) scale(1,1)"><path fill="none" stroke="#000000" d="M 762.1626748576241 323.790482243984 L 752 328 L 762.1626748576241 332.209517756016" stroke-miterlimit="10"/></g></g></svg>